<svg xmlns="http://www.w3.org/2000/svg" width="1em" height="1em" viewBox="0 0 256 256"><path fill="currentColor" d="M119.5 101.2a12.1 12.1 0 0 0 17 0l28.7-28.7a12.2 12.2 0 0 0 0-17l-28.7-28.7a12.1 12.1 0 0 0-17 0L90.8 55.5a12.2 12.2 0 0 0 0 17Zm-23-40l28.7-28.7a3.9 3.9 0 0 1 5.6 0l28.7 28.7a3.9 3.9 0 0 1 0 5.6l-28.7 28.7a4 4 0 0 1-5.6 0L96.5 66.8a3.9 3.9 0 0 1 0-5.6Zm132.7 58.3l-28.7-28.7a12.1 12.1 0 0 0-17 0l-28.7 28.7a12.2 12.2 0 0 0 0 17l28.7 28.7a12.1 12.1 0 0 0 17 0l28.7-28.7a12.2 12.2 0 0 0 0-17Zm-5.7 11.3l-28.7 28.7a4 4 0 0 1-5.6 0l-28.7-28.7a3.9 3.9 0 0 1 0-5.6l28.7-28.7a3.9 3.9 0 0 1 5.6 0l28.7 28.7a3.9 3.9 0 0 1 0 5.6Zm-122.3-11.3L72.5 90.8a12.1 12.1 0 0 0-17 0l-28.7 28.7a12.2 12.2 0 0 0 0 17l28.7 28.7a12.1 12.1 0 0 0 17 0l28.7-28.7a12.2 12.2 0 0 0 0-17Zm-5.7 11.3l-28.7 28.7a4 4 0 0 1-5.6 0l-28.7-28.7a3.9 3.9 0 0 1 0-5.6l28.7-28.7a3.9 3.9 0 0 1 5.6 0l28.7 28.7a3.9 3.9 0 0 1 0 5.6Zm41 24a12.1 12.1 0 0 0-17 0l-28.7 28.7a12.2 12.2 0 0 0 0 17l28.7 28.7a12.1 12.1 0 0 0 17 0l28.7-28.7a12.2 12.2 0 0 0 0-17Zm23 40l-28.7 28.7a4 4 0 0 1-5.6 0l-28.7-28.7a3.9 3.9 0 0 1 0-5.6l28.7-28.7a3.9 3.9 0 0 1 5.6 0l28.7 28.7a3.9 3.9 0 0 1 0 5.6Z"/></svg>